<svg width="298" height="101" viewBox="0 0 298 101" fill="none" xmlns="http://www.w3.org/2000/svg">
<path d="M80.744 18.6501L69.8417 60.7884H66.9863L47.9505 10.3436C47.0853 7.97852 46.1912 6.59411 45.2682 6.19031C44.4029 5.72884 41.9802 5.4981 38 5.4981V4.63284H67.592V5.4981C64.0733 5.4981 61.6217 5.7 60.2373 6.10379C58.9105 6.44989 58.2472 7.17094 58.2472 8.26694C58.2472 8.84378 58.4202 9.536 58.7663 10.3436L72.1779 46.5981L80.0518 16.4869L78.2347 10.3436C77.5425 8.03621 76.7061 6.65179 75.7255 6.19031C74.7448 5.72884 72.2356 5.4981 68.1977 5.4981V4.63284H97.7032V5.4981C94.1844 5.4981 91.7328 5.7 90.3484 6.10379C89.0217 6.44989 88.3583 7.22863 88.3583 8.44C88.3583 9.07452 88.4737 9.70905 88.7044 10.3436L99.8663 46.6846L109.471 19.7749C110.451 16.9484 110.942 14.641 110.942 12.8528C110.942 7.94968 107.481 5.4981 100.559 5.4981V4.63284H122.796V5.4981C118.7 5.4981 115.672 7.60357 113.711 11.8145C113.422 12.4491 112.355 15.2756 110.509 20.2941L96.3187 60.7884H93.5499L80.744 18.6501Z" fill="black"/>
<path d="M124.863 42.6179C124.863 48.7901 125.585 53.2606 127.027 56.0295C128.526 58.7983 130.776 60.1827 133.776 60.1827C136.948 60.1827 139.746 59.1156 142.169 56.9813C145.111 54.3855 146.582 50.8667 146.582 46.4251H147.36C147.36 50.7514 145.976 54.2989 143.207 57.0678C140.438 59.8366 136.746 61.2211 132.132 61.2211C128.267 61.2211 124.748 59.7501 121.575 56.8082C117.826 53.3472 115.951 48.8189 115.951 43.2236C115.951 37.1667 117.797 32.2347 121.489 28.4276C124.719 25.1396 128.353 23.4956 132.391 23.4956C136.141 23.4956 139.256 24.5916 141.736 26.7836C145.37 30.0139 147.187 35.292 147.187 42.6179H124.863ZM139.919 41.493C139.919 35.9554 139.4 31.7444 138.362 28.8602C137.381 25.9183 135.766 24.4474 133.516 24.4474C130.343 24.4474 128.094 25.8318 126.767 28.6006C125.498 31.3695 124.863 35.6669 124.863 41.493H139.919Z" fill="black"/>
<path d="M164.836 47.2903C164.836 52.7126 165.846 56.4333 167.865 58.4522C169.134 59.7213 170.98 60.3558 173.402 60.3558C175.767 60.3558 177.469 58.7118 178.507 55.4238C179.546 52.0781 180.065 47.6941 180.065 42.2718C180.065 35.8112 179.488 31.2253 178.334 28.5141C177.181 25.8029 175.537 24.4474 173.402 24.4474C171.095 24.4474 169.162 25.8029 167.605 28.5141C165.759 31.6867 164.836 36.0707 164.836 41.6661V47.2903ZM156.703 61.2211V9.99747C156.703 8.84379 156.53 8.03621 156.184 7.57474C155.837 7.11326 155.491 6.82484 155.145 6.70947C154.165 6.42105 151.944 6.27684 148.483 6.27684V5.41158L164.836 3.94063V34.4844C164.836 31.8309 165.673 29.3505 167.345 27.0432C169.076 24.6781 171.095 23.4956 173.402 23.4956C178.594 23.4956 182.661 25.8318 185.602 30.5042C187.91 34.196 189.064 38.0897 189.064 42.1853C189.064 47.4345 187.564 51.9339 184.564 55.6834C181.622 59.3752 178.219 61.2211 174.354 61.2211C170.835 61.2211 168.211 60.7884 166.48 59.9232C164.807 59.0002 163.019 57.1832 161.116 54.472L157.481 61.2211H156.703Z" fill="black"/>
<path d="M203.32 42.6179C203.32 48.7901 204.042 53.2606 205.484 56.0295C206.983 58.7983 209.233 60.1827 212.233 60.1827C215.405 60.1827 218.203 59.1156 220.626 56.9813C223.568 54.3855 225.039 50.8667 225.039 46.4251H225.817C225.817 50.7514 224.433 54.2989 221.664 57.0678C218.895 59.8366 215.203 61.2211 210.589 61.2211C206.724 61.2211 203.205 59.7501 200.033 56.8082C196.283 53.3472 194.408 48.8189 194.408 43.2236C194.408 37.1667 196.254 32.2347 199.946 28.4276C203.176 25.1396 206.81 23.4956 210.848 23.4956C214.598 23.4956 217.713 24.5916 220.193 26.7836C223.827 30.0139 225.644 35.292 225.644 42.6179H203.32ZM218.376 41.493C218.376 35.9554 217.857 31.7444 216.819 28.8602C215.838 25.9183 214.223 24.4474 211.973 24.4474C208.8 24.4474 206.551 25.8318 205.224 28.6006C203.955 31.3695 203.32 35.6669 203.32 41.493H218.376Z" fill="black"/>
<path d="M239.102 29.3794C239.102 28.2257 238.986 27.5046 238.755 27.2162C238.352 26.6394 237.977 26.2933 237.631 26.1779C236.592 25.8895 234.227 25.7453 230.535 25.7453V24.88L247.235 23.5821V34.4844C247.466 32.1194 248.273 29.8985 249.658 27.8219C251.561 24.9377 253.955 23.4956 256.839 23.4956C257.935 23.4956 259.118 23.8705 260.387 24.6204C261.656 25.3126 262.493 26.2067 262.896 27.3027C263.358 28.3987 263.589 29.3794 263.589 30.2446C263.589 32.552 262.637 34.1383 260.733 35.0036C260.272 35.2343 259.666 35.3497 258.916 35.3497C257.762 35.3497 256.782 34.9459 255.974 34.1383C255.167 33.3307 254.763 32.1194 254.763 30.5042C254.763 29.4659 255.138 28.4276 255.888 27.3893C256.695 26.3509 257.618 25.9472 258.657 26.1779C258.31 25.0242 257.272 24.4474 255.542 24.4474C253.869 24.4474 252.196 25.6587 250.523 28.0815C248.331 31.1964 247.235 35.2055 247.235 40.1086V56.2025C247.235 57.3562 247.322 58.1061 247.495 58.4522C247.61 58.6253 247.87 58.7983 248.273 58.9714C249.485 59.3752 251.994 59.577 255.801 59.577V60.4423H230.535V59.577C232.208 59.577 233.708 59.5194 235.035 59.404C236.419 59.2886 237.602 59.0579 238.582 58.7118C238.929 58.4234 239.102 57.5869 239.102 56.2025V29.3794Z" fill="black"/>
<path d="M266.419 15.7478C268.265 15.7478 269.736 15.4305 270.832 14.796C272.159 13.9884 272.995 12.6905 273.341 10.9023C273.226 10.2678 273.168 9.74863 273.168 9.34484C273.168 8.94105 273.053 8.71031 272.822 8.65263L272.13 9.17178C271.611 9.34484 271.121 9.43137 270.659 9.43137C269.563 9.43137 268.582 9.05642 267.717 8.30652C266.852 7.55663 266.419 6.576 266.419 5.36463C266.419 3.80716 266.823 2.5381 267.631 1.55747C268.496 0.519156 269.765 0 271.438 0C272.995 0 274.264 0.634525 275.245 1.90358C276.283 3.11495 276.802 4.7301 276.802 6.74905C276.802 13.6712 273.341 17.1322 266.419 17.1322V15.7478Z" fill="black"/>
<path d="M290.878 26.1779C293.128 24.505 294.311 23.6109 294.426 23.4956V36.4745L293.647 36.3015C292.84 32.8404 291.398 30.0139 289.321 27.8219C287.071 25.4568 284.591 24.2743 281.88 24.2743C279.803 24.2743 278.101 24.6781 276.775 25.4857C274.986 26.5817 274.092 28.3987 274.092 30.9368C274.092 33.0135 275.073 34.6286 277.034 35.7823C278.419 36.5899 281.187 37.484 285.341 38.4646C289.494 39.4453 292.407 40.5989 294.08 41.9257C296.445 43.7716 297.627 46.7135 297.627 50.7514C297.627 54.5008 296.358 57.2697 293.82 59.0579C291.801 60.5 289.263 61.2211 286.206 61.2211C283.668 61.2211 281.851 61.048 280.755 60.7019C279.14 60.1827 277.38 58.9425 275.477 56.9813C273.169 59.6924 271.958 61.1057 271.843 61.2211V45.9059H272.448C273.429 49.4823 274.237 51.9627 274.871 53.3472C275.736 55.2507 276.659 56.664 277.64 57.5869C278.967 58.856 280.207 59.6636 281.361 60.0097C282.572 60.2981 284.36 60.4423 286.725 60.4423C288.513 60.4423 289.984 59.9808 291.138 59.0579C292.522 57.9619 293.215 56.4044 293.215 54.3855C293.215 51.7897 292.292 49.8573 290.446 48.5882C289.004 47.6076 286.437 46.7423 282.745 45.9924C279.111 45.2425 276.284 44.0312 274.265 42.3583C271.843 40.3394 270.631 37.6571 270.631 34.3114C270.631 31.3118 271.641 28.7737 273.66 26.6971C275.736 24.5627 278.246 23.4956 281.187 23.4956C283.437 23.4956 285.398 23.8705 287.071 24.6204C289.263 25.6011 290.532 26.1202 290.878 26.1779Z" fill="black"/>
<path d="M0 4.64453H5V61H0V4.64453Z" fill="#F7EC23"/>
<path d="M5 4.64337H34.0909L55 61H5V4.64337Z" fill="url(#paint0_linear)"/>
<path d="M91.3234 81.0915V88.6179H102.15V91.2706H91.3234V100H88.2388V78.4079H103.477V81.0915H91.3234Z" fill="#0B7337"/>
<path d="M113.693 83.4975C115.955 83.4975 117.683 84.0527 118.875 85.1631C120.089 86.2736 120.695 87.929 120.695 90.1293V100H117.888V97.8408C117.395 98.6017 116.685 99.1877 115.76 99.599C114.855 99.9897 113.775 100.185 112.521 100.185C110.691 100.185 109.22 99.743 108.11 98.8587C107.02 97.9745 106.475 96.8126 106.475 95.3731C106.475 93.9336 107 92.7821 108.048 91.9184C109.097 91.0341 110.763 90.592 113.045 90.592H117.734V90.0059C117.734 88.731 117.364 87.7542 116.623 87.0756C115.883 86.397 114.793 86.0577 113.354 86.0577C112.387 86.0577 111.441 86.2222 110.516 86.5512C109.591 86.8597 108.809 87.2812 108.172 87.8159L106.938 85.595C107.781 84.9164 108.789 84.4023 109.961 84.0527C111.133 83.6825 112.377 83.4975 113.693 83.4975ZM113.015 97.9025C114.146 97.9025 115.122 97.6557 115.945 97.1622C116.767 96.6481 117.364 95.9283 117.734 95.003V92.7204H113.169C110.66 92.7204 109.406 93.5635 109.406 95.2497C109.406 96.0723 109.724 96.7201 110.362 97.193C110.999 97.666 111.884 97.9025 113.015 97.9025Z" fill="#0B7337"/>
<path d="M129.938 86.397C130.452 85.451 131.213 84.7313 132.221 84.2378C133.229 83.7442 134.452 83.4975 135.892 83.4975V86.3661C135.727 86.3456 135.501 86.3353 135.213 86.3353C133.609 86.3353 132.344 86.8185 131.419 87.785C130.514 88.731 130.062 90.0882 130.062 91.8567V100H127.1V83.6517H129.938V86.397Z" fill="#0B7337"/>
<path d="M160.917 83.4975C162.974 83.4975 164.598 84.0938 165.791 85.2865C167.004 86.4792 167.611 88.2477 167.611 90.592V100H164.65V90.9313C164.65 89.3479 164.28 88.1552 163.539 87.3532C162.82 86.5512 161.781 86.1502 160.424 86.1502C158.923 86.1502 157.73 86.6232 156.846 87.5691C155.962 88.4945 155.519 89.8312 155.519 91.5791V100H152.558V90.9313C152.558 89.3479 152.188 88.1552 151.448 87.3532C150.728 86.5512 149.69 86.1502 148.332 86.1502C146.831 86.1502 145.638 86.6232 144.754 87.5691C143.87 88.4945 143.428 89.8312 143.428 91.5791V100H140.467V83.6517H143.304V86.0885C143.901 85.2454 144.682 84.6079 145.649 84.1761C146.615 83.7237 147.715 83.4975 148.949 83.4975C150.224 83.4975 151.355 83.7545 152.342 84.2686C153.329 84.7827 154.09 85.5333 154.625 86.5204C155.242 85.5744 156.095 84.8341 157.185 84.2995C158.296 83.7648 159.54 83.4975 160.917 83.4975Z" fill="#0B7337"/>
<path d="M189.919 100.247C188.294 100.247 186.721 100 185.199 99.5065C183.698 98.9924 182.516 98.3343 181.652 97.5323L182.793 95.1264C183.616 95.8667 184.664 96.4733 185.939 96.9463C187.235 97.3987 188.561 97.6249 189.919 97.6249C191.708 97.6249 193.044 97.3267 193.928 96.7303C194.813 96.1134 195.255 95.3011 195.255 94.2935C195.255 93.5532 195.008 92.9569 194.515 92.5045C194.042 92.0315 193.445 91.6716 192.726 91.4249C192.026 91.1781 191.029 90.9005 189.733 90.592C188.109 90.2013 186.793 89.8106 185.785 89.4199C184.798 89.0292 183.945 88.4328 183.225 87.6308C182.526 86.8083 182.176 85.7081 182.176 84.3303C182.176 83.1787 182.474 82.1403 183.071 81.2149C183.688 80.2895 184.613 79.5492 185.847 78.994C187.081 78.4387 188.613 78.1611 190.443 78.1611C191.718 78.1611 192.972 78.3256 194.206 78.6547C195.44 78.9837 196.499 79.4567 197.383 80.0736L196.365 82.5412C195.461 81.9655 194.494 81.5336 193.466 81.2457C192.438 80.9373 191.43 80.783 190.443 80.783C188.695 80.783 187.379 81.1018 186.495 81.7393C185.631 82.3767 185.199 83.1993 185.199 84.2069C185.199 84.9472 185.446 85.5539 185.939 86.0268C186.433 86.4792 187.04 86.8391 187.759 87.1064C188.5 87.3532 189.497 87.6205 190.751 87.9084C192.376 88.2991 193.682 88.6899 194.669 89.0806C195.656 89.4713 196.499 90.0676 197.198 90.8696C197.918 91.6716 198.278 92.7512 198.278 94.1084C198.278 95.2395 197.969 96.2779 197.352 97.2239C196.735 98.1492 195.8 98.8895 194.545 99.4448C193.291 99.9794 191.749 100.247 189.919 100.247Z" fill="#0B7337"/>
<path d="M218.053 91.9184C218.053 92.1446 218.032 92.4428 217.991 92.8129H204.727C204.913 94.2524 205.54 95.4143 206.609 96.2985C207.699 97.1622 209.046 97.594 210.65 97.594C212.603 97.594 214.177 96.936 215.369 95.6199L217.004 97.5323C216.264 98.396 215.338 99.0541 214.228 99.5065C213.138 99.9589 211.915 100.185 210.557 100.185C208.83 100.185 207.298 99.8355 205.961 99.1363C204.625 98.4166 203.586 97.4192 202.846 96.1443C202.126 94.8693 201.766 93.4298 201.766 91.8258C201.766 90.2424 202.116 88.8132 202.815 87.5383C203.535 86.2633 204.512 85.2762 205.745 84.5771C207 83.8573 208.408 83.4975 209.971 83.4975C211.534 83.4975 212.922 83.8573 214.135 84.5771C215.369 85.2762 216.325 86.2633 217.004 87.5383C217.703 88.8132 218.053 90.2733 218.053 91.9184ZM209.971 85.996C208.552 85.996 207.36 86.4278 206.393 87.2915C205.447 88.1552 204.892 89.2862 204.727 90.6846H215.215C215.051 89.3068 214.485 88.186 213.519 87.3224C212.573 86.4381 211.39 85.996 209.971 85.996Z" fill="#0B7337"/>
<path d="M225.928 86.397C226.442 85.451 227.203 84.7313 228.211 84.2378C229.218 83.7442 230.442 83.4975 231.881 83.4975V86.3661C231.717 86.3456 231.49 86.3353 231.203 86.3353C229.599 86.3353 228.334 86.8185 227.409 87.785C226.504 88.731 226.051 90.0882 226.051 91.8567V100H223.09V83.6517H225.928V86.397Z" fill="#0B7337"/>
<path d="M251.586 83.6517L244.429 100H241.407L234.25 83.6517H237.335L242.949 96.7612L248.686 83.6517H251.586Z" fill="#0B7337"/>
<path d="M255.275 83.6517H258.236V100H255.275V83.6517ZM256.755 80.5054C256.179 80.5054 255.696 80.3203 255.305 79.9502C254.935 79.58 254.75 79.1276 254.75 78.593C254.75 78.0583 254.935 77.6059 255.305 77.2358C255.696 76.845 256.179 76.6497 256.755 76.6497C257.331 76.6497 257.804 76.8348 258.174 77.2049C258.565 77.5545 258.76 77.9966 258.76 78.5313C258.76 79.0865 258.565 79.5595 258.174 79.9502C257.804 80.3203 257.331 80.5054 256.755 80.5054Z" fill="#0B7337"/>
<path d="M271.941 100.185C270.275 100.185 268.784 99.8252 267.468 99.1055C266.172 98.3857 265.154 97.3987 264.414 96.1443C263.674 94.8693 263.304 93.4298 263.304 91.8258C263.304 90.2219 263.674 88.7927 264.414 87.5383C265.154 86.2633 266.172 85.2762 267.468 84.5771C268.784 83.8573 270.275 83.4975 271.941 83.4975C273.421 83.4975 274.737 83.7956 275.889 84.392C277.061 84.9884 277.966 85.852 278.603 86.983L276.352 88.4328C275.837 87.6514 275.2 87.0653 274.439 86.6746C273.678 86.2839 272.835 86.0885 271.91 86.0885C270.84 86.0885 269.874 86.325 269.01 86.798C268.167 87.2709 267.499 87.9496 267.005 88.8338C266.532 89.6975 266.296 90.6948 266.296 91.8258C266.296 92.9774 266.532 93.9953 267.005 94.8796C267.499 95.7433 268.167 96.4116 269.01 96.8846C269.874 97.3575 270.84 97.594 271.91 97.594C272.835 97.594 273.678 97.3987 274.439 97.008C275.2 96.6172 275.837 96.0312 276.352 95.2497L278.603 96.6686C277.966 97.7997 277.061 98.6736 275.889 99.2905C274.737 99.8869 273.421 100.185 271.941 100.185Z" fill="#0B7337"/>
<path d="M297.897 91.9184C297.897 92.1446 297.876 92.4428 297.835 92.8129H284.571C284.756 94.2524 285.383 95.4143 286.453 96.2985C287.543 97.1622 288.89 97.594 290.494 97.594C292.447 97.594 294.02 96.936 295.213 95.6199L296.848 97.5323C296.108 98.396 295.182 99.0541 294.072 99.5065C292.982 99.9589 291.758 100.185 290.401 100.185C288.674 100.185 287.142 99.8355 285.805 99.1363C284.468 98.4166 283.43 97.4192 282.69 96.1443C281.97 94.8693 281.61 93.4298 281.61 91.8258C281.61 90.2424 281.96 88.8132 282.659 87.5383C283.378 86.2633 284.355 85.2762 285.589 84.5771C286.844 83.8573 288.252 83.4975 289.815 83.4975C291.378 83.4975 292.766 83.8573 293.979 84.5771C295.213 85.2762 296.169 86.2633 296.848 87.5383C297.547 88.8132 297.897 90.2733 297.897 91.9184ZM289.815 85.996C288.396 85.996 287.203 86.4278 286.237 87.2915C285.291 88.1552 284.736 89.2862 284.571 90.6846H295.059C294.894 89.3068 294.329 88.186 293.362 87.3224C292.416 86.4381 291.234 85.996 289.815 85.996Z" fill="#0B7337"/>
<defs>
<linearGradient id="paint0_linear" x1="7.72727" y1="38.5082" x2="61.0634" y2="60.628" gradientUnits="userSpaceOnUse">
<stop stop-color="#0D803A"/>
<stop offset="1" stop-color="#076334"/>
</linearGradient>
</defs>
</svg>
